<?xml version="1.0" encoding="UTF-8"?>
<svg version="1.1" id="Layer_1" xmlns="http://www.w3.org/2000/svg" xmlns:xlink="http://www.w3.org/1999/xlink" viewBox="0 0 24 24" enable-background="new 0 0 32 32" xml:space="preserve" width="24" height="24"><path fill="none" stroke="#FF0000" stroke-width="1.5" stroke-miterlimit="10" d="M17.25 20.25h-9c-0.826 0 -1.5 -0.676 -1.5 -1.5V6h12v12.75c0 0.826 -0.676 1.5 -1.5 1.5z"/><path fill="none" stroke="#FF0000" stroke-width="1.5" stroke-miterlimit="10" x1="27" y1="8" x2="7" y2="8" d="M20.25 6h-15"/><path fill="none" stroke="#FF0000" stroke-width="1.5" stroke-miterlimit="10" d="M10.5 6V4.5c0 -0.45 0.3 -0.75 0.75 -0.75h3c0.45 0 0.75 0.3 0.75 0.75V6"/><path fill="none" stroke="#FF0000" stroke-width="1.5" stroke-miterlimit="10" x1="17" y1="23" x2="17" y2="12" d="M12.75 17.25V9"/><path fill="none" stroke="#FF0000" stroke-width="1.5" stroke-miterlimit="10" x1="21" y1="23" x2="21" y2="12" d="M15.75 17.25V9"/><path fill="none" stroke="#FF0000" stroke-width="1.5" stroke-miterlimit="10" x1="13" y1="23" x2="13" y2="12" d="M9.75 17.25V9"/></svg>