<?xml version="1.0" encoding="UTF-8"?>
<svg width="20" height="20" viewBox="0 0 0.6 0.6" xmlns="http://www.w3.org/2000/svg"><path d="M.525.3A.025.025 0 0 0 .5.325v.15A.025.025 0 0 1 .475.5h-.35A.025.025 0 0 1 .1.475v-.35A.025.025 0 0 1 .125.1h.15a.025.025 0 0 0 0-.05h-.15A.075.075 0 0 0 .05.125v.35A.075.075 0 0 0 .125.55h.35A.075.075 0 0 0 .55.475v-.15A.025.025 0 0 0 .525.3ZM.15.319v.106A.025.025 0 0 0 .175.45h.106A.025.025 0 0 0 .299.443L.472.27.543.2a.025.025 0 0 0 0-.035L.437.058a.025.025 0 0 0-.035 0l-.07.071-.174.173A.025.025 0 0 0 .151.32ZM.419.11.49.181.455.216.384.145ZM.2.329.348.181l.071.071L.271.4H.2Z"/></svg>